HIERARCHY
ROOT Hips
{
	OFFSET -3.958830 18.904000 13.208200
	CHANNELS 6 Xposition Yposition Zposition Zrotation Yrotation Xrotation 
	JOINT LHipJoint
	{
		OFFSET 0.000000 0.000000 0.000000
		CHANNELS 3 Zrotation Yrotation Xrotation
		JOINT LeftUpLeg
		{
			OFFSET 1.800000 -1.400000 0.085000
			CHANNELS 3 Zrotation Yrotation Xrotation
			JOINT LeftLeg
			{
				OFFSET 2.215000 -6.000000 0.000000
				CHANNELS 3 Zrotation Yrotation Xrotation
				JOINT LeftFoot
				{
					OFFSET 2.500000 -6.900000 0.000000
					CHANNELS 3 Zrotation Yrotation Xrotation
					JOINT LeftToeBase
					{
						OFFSET 0.200000 -0.500000 1.950000
						CHANNELS 3 Zrotation Yrotation Xrotation
						End Site
						{
							OFFSET 0.000000 0.000000 0.000000
						}
					}
				}
			}
		}
	}
	JOINT RHipJoint
	{
		OFFSET 0.000000 0.000000 0.000000
		CHANNELS 3 Zrotation Yrotation Xrotation
		JOINT RightUpLeg
		{
			OFFSET -1.800000 -1.400000 0.085000
			CHANNELS 3 Zrotation Yrotation Xrotation
			JOINT RightLeg
			{
				OFFSET -2.215000 -6.000000 0.000000
				CHANNELS 3 Zrotation Yrotation Xrotation
				JOINT RightFoot
				{
					OFFSET -2.500000 -6.900000 0.000000
					CHANNELS 3 Zrotation Yrotation Xrotation
					JOINT RightToeBase
					{
						OFFSET -0.200000 -0.500000 1.950000
						CHANNELS 3 Zrotation Yrotation Xrotation
						End Site
						{
							OFFSET 0.000000 0.000000 0.000000
						}
					}
				}
			}
		}
	}
	JOINT LowerBack
	{
		OFFSET 0.000000 0.000000 0.000000
		CHANNELS 3 Zrotation Yrotation Xrotation
		JOINT Spine
		{
			OFFSET -0.087000 1.940000 -0.288900
			CHANNELS 3 Zrotation Yrotation Xrotation
			JOINT Spine1
			{
				OFFSET 0.000000 1.950000 0.060000
				CHANNELS 3 Zrotation Yrotation Xrotation
				JOINT Neck
				{
					OFFSET 0.000000 0.000000 0.000000
					CHANNELS 3 Zrotation Yrotation Xrotation
					JOINT Neck1
					{
						OFFSET 0.000000 1.600000 0.340000
						CHANNELS 3 Zrotation Yrotation Xrotation
						JOINT Head
						{
							OFFSET 0.000000 1.667000 -0.240000
							CHANNELS 3 Zrotation Yrotation Xrotation
							End Site
							{
								OFFSET 0.000000 0.000000 0.000000
							}
						}
					}
				}
				JOINT LeftShoulder
				{
					OFFSET 0.000000 0.000000 0.000000
					CHANNELS 3 Zrotation Yrotation Xrotation
					JOINT LeftArm
					{
						OFFSET 2.700000 1.550000 -0.730000
						CHANNELS 3 Zrotation Yrotation Xrotation
						JOINT LeftForeArm
						{
							OFFSET 5.450000 0.000000 0.000000
							CHANNELS 3 Zrotation Yrotation Xrotation
							JOINT LeftHand
							{
								OFFSET 3.450000 0.000000 0.000000
								CHANNELS 3 Zrotation Yrotation Xrotation
								JOINT LeftHandIndex1
								{
									OFFSET 0.750000 0.000000 0.000000
									CHANNELS 3 Zrotation Yrotation Xrotation
									End Site
									{
										OFFSET 0.000000 0.000000 0.000000
									}
								}
							}
						}
					}
				}
				JOINT RightShoulder
				{
					OFFSET 0.000000 0.000000 0.000000
					CHANNELS 3 Zrotation Yrotation Xrotation
					JOINT RightArm
					{
						OFFSET -2.700000 1.550000 -0.730000
						CHANNELS 3 Zrotation Yrotation Xrotation
						JOINT RightForeArm
						{
							OFFSET -5.450000 0.000000 0.000000
							CHANNELS 3 Zrotation Yrotation Xrotation
							JOINT RightHand
							{
								OFFSET -3.450000 0.000000 0.000000
								CHANNELS 3 Zrotation Yrotation Xrotation
								JOINT RightHandIndex1
								{
									OFFSET -0.750000 0.000000 0.000000
									CHANNELS 3 Zrotation Yrotation Xrotation
									End Site
									{
										OFFSET 0.000000 0.000000 0.000000
									}
								}
							}
						}
					}
				}
			}
		}
	}
}
MOTION
Frames: 6
Frame Time: 0.016667
0.718930 16.760620 -0.851930 -1.242418 -1.270288 8.310381 -15.469620 12.667367 2.990713 0.514333 -1.139703 -8.064583 -10.252679 4.321725 2.841936 -0.605372 4.256105 3.572744 0.688670 0.054680 0.316250 18.019799 -10.249265 2.910843 -24.991512 0.572278 -17.814297 2.721522 -3.627369 -0.571316 -0.551232 -3.851276 3.172331 0.007480 0.538060 0.680010 -2.821301 -1.455429 -7.280320 -1.594693 0.233736 2.912856 2.192578 0.185872 -2.624592 2.835560 1.426966 -5.457126 2.255212 3.879545 28.047447 -3.840090 5.749800 -12.655660 -29.603405 -1.691406 0.707948 -50.794760 -3.567347 -1.442932 -8.155834 -15.982016 -1.077127 -3.896629 3.077614 0.883030 0.335890 -0.024610 0.569690 25.181162 2.421370 1.209584 56.407008 6.513166 -3.300972 2.073315 14.053003 -0.784311 1.811083 -1.526415 -0.194960 0.125240 -0.083470 -0.287500 
0.711180 16.760560 -0.852310 -1.092896 -1.230758 8.315180 -15.470580 12.645792 2.984274 0.469714 -1.121767 -8.057233 -10.349922 4.340366 2.810334 -0.609024 4.278325 3.575661 0.666190 0.033250 0.293860 18.022051 -10.233557 2.930187 -25.228898 0.582779 -17.695133 2.894708 -3.655148 -0.725355 -0.549573 -3.885729 3.171855 0.000790 0.561790 0.672240 -2.823975 -1.435457 -7.282031 -1.745376 0.289361 2.811694 2.146044 0.254401 -2.768474 2.819317 1.352602 -5.429951 2.140018 3.870068 28.005188 -3.675120 5.572320 -12.631860 -29.550155 -1.504901 0.612913 -50.812666 -3.601503 -1.339305 -7.841588 -15.649485 -1.122583 -3.917910 3.043245 0.883950 0.346330 -0.035510 0.570300 25.147277 2.320464 1.225169 56.341387 6.410979 -3.326165 1.812843 14.013071 -0.792857 1.801257 -1.504812 -0.210500 0.149960 -0.066200 -0.285010 
0.707580 16.759700 -0.850800 -1.286074 -1.134955 8.405663 -15.447178 12.619189 2.974933 0.844523 -1.144677 -8.228924 -10.707856 4.406853 2.812240 -0.614492 4.335881 3.576357 0.648070 0.020750 0.265620 18.045395 -10.234641 2.939544 -25.133310 0.641317 -17.625760 3.114080 -3.655086 -0.829222 -0.545959 -3.897738 3.183760 0.006470 0.605150 0.662200 -2.892909 -1.384283 -7.269332 -1.096325 0.222417 2.706216 1.781208 0.209959 -3.023215 2.748984 1.082692 -5.158980 1.725918 4.000505 27.470184 -3.249680 5.263790 -12.682320 -29.461830 -0.785578 0.281322 -50.879845 -3.731645 -1.169951 -7.769418 -15.437430 -1.133321 -3.945963 3.000311 0.880890 0.363230 -0.049730 0.586300 25.115545 1.725171 0.961145 56.222908 6.549826 -3.177027 1.688236 13.754408 -0.797446 1.793810 -1.481900 -0.234860 0.194270 -0.053420 -0.273080 
0.705870 16.763910 -0.854370 -1.178997 -0.959742 8.211992 -15.450608 12.626714 2.975810 0.944006 -1.121965 -8.173119 -10.864480 4.478166 3.009029 -0.582256 4.334401 3.566975 0.652920 0.033960 0.262150 18.035334 -10.235485 2.957465 -25.337066 0.615856 -17.362278 3.350236 -3.705589 -0.852298 -0.560463 -3.924951 3.173534 -0.002700 0.589190 0.666710 -2.873681 -1.392793 -7.303555 -1.189918 0.224683 2.852875 1.834199 0.213276 -2.987671 2.762748 1.016144 -5.344797 1.575841 3.994613 28.136460 -2.856960 5.110650 -12.858540 -29.581505 -1.165207 0.447523 -50.889311 -3.711471 -1.231939 -7.316136 -15.446047 -1.176408 -3.928011 3.011085 0.877780 0.348810 -0.034840 0.584810 25.220018 2.215575 1.198957 55.634326 6.481136 -3.184685 1.742523 13.700715 -0.749446 1.804781 -1.479859 -0.210310 0.180930 -0.058330 -0.263210 
0.707210 16.763940 -0.856790 -1.164793 -0.730918 8.192648 -15.446712 12.629016 2.968250 0.963744 -1.133983 -8.248409 -10.799795 4.490899 3.176513 -0.575382 4.317190 3.565219 0.661980 0.046320 0.262910 18.036900 -10.246872 2.957564 -25.326823 0.619486 -17.252566 3.364802 -3.711835 -0.845084 -0.562716 -3.939813 3.167938 -0.000560 0.581250 0.674790 -2.883351 -1.376251 -7.298731 -1.046011 0.178971 2.795752 1.731803 0.163825 -2.945361 2.864988 1.012013 -5.368228 1.586709 3.956102 28.135038 -2.952970 5.090980 -12.643890 -29.692146 -1.230002 0.448488 -50.932563 -3.779214 -1.215310 -6.912999 -15.334740 -1.220771 -3.927525 3.030113 0.866260 0.350070 -0.033550 0.586190 25.111837 2.287024 1.255941 55.425720 6.499786 -3.133610 1.734775 13.685276 -0.749549 1.807367 -1.495238 -0.194570 0.164330 -0.063430 -0.259270 
0.709710 16.765620 -0.856120 -1.245168 -0.600249 8.018459 -15.441193 12.647409 2.965145 1.070004 -1.094035 -8.170057 -10.772454 4.540578 3.390671 -0.569549 4.312332 3.563638 0.663370 0.054230 0.264270 18.034116 -10.270429 2.959735 -25.278909 0.608320 -17.060345 3.472515 -3.741903 -0.775146 -0.565668 -3.941710 3.177361 -0.000250 0.569610 0.664850 -2.887687 -1.364491 -7.316077 -0.750620 0.152043 2.911278 1.555351 0.151601 -3.011891 3.037811 0.992994 -5.417583 1.555599 3.937263 28.605654 -3.073300 5.165420 -12.831910 -29.875546 -1.262778 0.427421 -50.861186 -3.815693 -1.197554 -6.641535 -15.207322 -1.237447 -3.914537 3.016416 0.872000 0.341820 -0.025360 0.586720 24.935803 2.342637 1.346630 55.266088 6.495017 -3.106262 1.807419 13.703310 -0.721450 1.811248 -1.485091 -0.194200 0.167100 -0.071030 -0.260120 
